<svg width="20" height="21" viewBox="0 0 20 21" fill="none" xmlns="http://www.w3.org/2000/svg">
<path fill-rule="evenodd" clip-rule="evenodd" d="M1.25 10.0887C1.25 12.428 2.17187 14.6716 3.81282 16.3258C5.45376 17.9799 7.67936 18.9092 10 18.9092C12.3206 18.9092 14.5462 17.9799 16.1872 16.3258C17.8281 14.6716 18.75 12.428 18.75 10.0887C18.75 7.74933 17.8281 5.50579 16.1872 3.85161C14.5462 2.19744 12.3206 1.26814 10 1.26814C7.67936 1.26814 5.45376 2.19744 3.81282 3.85161C2.17187 5.50579 1.25 7.74933 1.25 10.0887ZM20 10.0887C20 12.7622 18.9464 15.3263 17.0711 17.2168C15.1957 19.1073 12.6522 20.1693 10 20.1693C7.34784 20.1693 4.8043 19.1073 2.92893 17.2168C1.05357 15.3263 0 12.7622 0 10.0887C0 7.41514 1.05357 4.85109 2.92893 2.9606C4.8043 1.07012 7.34784 0.00805664 10 0.00805664C12.6522 0.00805664 15.1957 1.07012 17.0711 2.9606C18.9464 4.85109 20 7.41514 20 10.0887ZM14.375 9.45865C14.5408 9.45865 14.6997 9.52503 14.8169 9.64318C14.9342 9.76134 15 9.92159 15 10.0887C15 10.2558 14.9342 10.416 14.8169 10.5342C14.6997 10.6523 14.5408 10.7187 14.375 10.7187H7.13375L9.8175 13.4229C9.87561 13.4814 9.92171 13.551 9.95315 13.6275C9.9846 13.704 10.0008 13.7861 10.0008 13.8689C10.0008 13.9518 9.9846 14.0338 9.95315 14.1103C9.92171 14.1869 9.87561 14.2564 9.8175 14.315C9.75939 14.3736 9.6904 14.42 9.61448 14.4517C9.53856 14.4834 9.45718 14.4998 9.375 14.4998C9.29282 14.4998 9.21144 14.4834 9.13552 14.4517C9.0596 14.42 8.99061 14.3736 8.9325 14.315L5.1825 10.5348C5.1243 10.4762 5.07812 10.4067 5.04661 10.3302C5.0151 10.2536 4.99888 10.1716 4.99888 10.0887C4.99888 10.0058 5.0151 9.92376 5.04661 9.84721C5.07812 9.77067 5.1243 9.70114 5.1825 9.64262L8.9325 5.86238C9.04986 5.74408 9.20903 5.67761 9.375 5.67761C9.54097 5.67761 9.70014 5.74408 9.8175 5.86238C9.93486 5.98069 10.0008 6.14114 10.0008 6.30845C10.0008 6.47576 9.93486 6.63621 9.8175 6.75452L7.13375 9.45865H14.375Z" fill="black"/>
</svg>
