<svg width="20" height="21" viewBox="0 0 20 21" fill="none" xmlns="http://www.w3.org/2000/svg">
<path d="M10 1.26008C10.739 1.26008 11.4478 1.52559 11.9703 1.99822C12.4929 2.47084 12.7865 3.11185 12.7865 3.78024V6.30039H7.21353V3.78024C7.21353 3.11185 7.5071 2.47084 8.02967 1.99822C8.55223 1.52559 9.26098 1.26008 10 1.26008ZM14.1797 6.30039V3.78024C14.1797 2.77766 13.7394 1.81614 12.9555 1.10721C12.1717 0.398274 11.1085 0 10 0C8.89147 0 7.82835 0.398274 7.0445 1.10721C6.26065 1.81614 5.82029 2.77766 5.82029 3.78024V6.30039H3.53538C3.03503 6.30049 2.55133 6.46295 2.17218 6.75823C1.79303 7.05351 1.5436 7.46202 1.46921 7.90951L0.0383583 16.5448C-0.0357789 16.9929 -0.00218558 17.4501 0.136847 17.8854C0.275879 18.3207 0.517079 18.7237 0.843991 19.0669C1.1709 19.4102 1.57584 19.6857 2.03117 19.8745C2.4865 20.0634 2.98151 20.1612 3.48244 20.1613H16.5162C17.0172 20.1614 17.5124 20.0637 17.9679 19.8749C18.4234 19.6861 18.8285 19.4107 19.1556 19.0674C19.4826 18.7241 19.7239 18.321 19.8631 17.8857C20.0022 17.4504 20.0358 16.993 19.9616 16.5448L18.5294 7.90951C18.455 7.46223 18.2058 7.05389 17.827 6.75864C17.4481 6.46338 16.9647 6.3008 16.4646 6.30039H14.1797ZM12.7865 7.56047V9.45059C12.7865 9.61769 12.8599 9.77794 12.9905 9.8961C13.1212 10.0143 13.2983 10.0806 13.4831 10.0806C13.6678 10.0806 13.845 10.0143 13.9757 9.8961C14.1063 9.77794 14.1797 9.61769 14.1797 9.45059V7.56047H16.4632C16.63 7.56062 16.7912 7.61488 16.9175 7.71338C17.0438 7.81188 17.1268 7.9481 17.1515 8.09727L18.5837 16.7301C18.6284 16.999 18.6084 17.2734 18.5251 17.5347C18.4418 17.796 18.2972 18.038 18.101 18.2441C17.9049 18.4502 17.6619 18.6156 17.3886 18.729C17.1153 18.8424 16.8182 18.9011 16.5176 18.9012H3.48244C3.18177 18.9011 2.88466 18.8424 2.61138 18.729C2.3381 18.6156 2.0951 18.4502 1.89896 18.2441C1.70282 18.038 1.55816 17.796 1.47486 17.5347C1.39155 17.2734 1.37157 16.999 1.41627 16.7301L2.84852 8.09727C2.87316 7.94831 2.95599 7.81227 3.082 7.71379C3.20801 7.61531 3.36885 7.56092 3.53538 7.56047H5.82029V9.45059C5.82029 9.61769 5.89368 9.77794 6.02433 9.8961C6.15497 10.0143 6.33215 10.0806 6.51691 10.0806C6.70166 10.0806 6.87885 10.0143 7.00949 9.8961C7.14013 9.77794 7.21353 9.61769 7.21353 9.45059V7.56047H12.7865Z" fill="black"/>
</svg>
