<svg width="22" height="22" viewBox="0 0 22 22" fill="none" xmlns="http://www.w3.org/2000/svg">
<path d="M0.459042 0.459042C0.604185 0.313532 0.776609 0.198085 0.966437 0.119315C1.15627 0.0405449 1.35977 0 1.56529 0C1.77082 0 1.97432 0.0405449 2.16415 0.119315C2.35398 0.198085 2.5264 0.313532 2.67154 0.459042L10.9403 8.73092L19.209 0.459042C19.3543 0.313767 19.5268 0.198529 19.7166 0.119907C19.9064 0.0412845 20.1098 0.000818074 20.3153 0.000818074C20.5207 0.000818074 20.7242 0.0412845 20.914 0.119907C21.1038 0.198529 21.2763 0.313767 21.4215 0.459042C21.5668 0.604317 21.6821 0.776783 21.7607 0.966594C21.8393 1.1564 21.8798 1.35984 21.8798 1.56529C21.8798 1.77074 21.8393 1.97418 21.7607 2.16399C21.6821 2.3538 21.5668 2.52627 21.4215 2.67154L13.1497 10.9403L21.4215 19.209C21.5668 19.3543 21.6821 19.5268 21.7607 19.7166C21.8393 19.9064 21.8798 20.1098 21.8798 20.3153C21.8798 20.5207 21.8393 20.7242 21.7607 20.914C21.6821 21.1038 21.5668 21.2763 21.4215 21.4215C21.2763 21.5668 21.1038 21.6821 20.914 21.7607C20.7242 21.8393 20.5207 21.8798 20.3153 21.8798C20.1098 21.8798 19.9064 21.8393 19.7166 21.7607C19.5268 21.6821 19.3543 21.5668 19.209 21.4215L10.9403 13.1497L2.67154 21.4215C2.52627 21.5668 2.3538 21.6821 2.16399 21.7607C1.97418 21.8393 1.77074 21.8798 1.56529 21.8798C1.35984 21.8798 1.1564 21.8393 0.966594 21.7607C0.776783 21.6821 0.604317 21.5668 0.459042 21.4215C0.313767 21.2763 0.198529 21.1038 0.119907 20.914C0.0412845 20.7242 0.000818074 20.5207 0.000818074 20.3153C0.000818074 20.1098 0.0412845 19.9064 0.119907 19.7166C0.198529 19.5268 0.313767 19.3543 0.459042 19.209L8.73092 10.9403L0.459042 2.67154C0.313532 2.5264 0.198085 2.35398 0.119315 2.16415C0.0405449 1.97432 0 1.77082 0 1.56529C0 1.35977 0.0405449 1.15627 0.119315 0.966437C0.198085 0.776609 0.313532 0.604185 0.459042 0.459042Z" fill="black"/>
</svg>
