<svg width="20" height="21" viewBox="0 0 20 21" fill="none" xmlns="http://www.w3.org/2000/svg">
<path d="M10.0002 3.6936L9.1039 2.70301C7.00008 0.377752 3.14246 1.18017 1.74992 4.10354C1.09615 5.47853 0.948648 7.46374 2.14243 9.99733C3.29247 12.4368 5.68504 15.3589 10.0002 18.5416C14.3153 15.3589 16.7066 12.4368 17.8579 9.99733C19.0517 7.4624 18.9054 5.47853 18.2504 4.10354C16.8579 1.18017 13.0003 0.376408 10.8965 2.70167L10.0002 3.6936ZM10.0002 20.1613C-9.16666 6.54305 4.09874 -4.08594 9.78017 1.53635C9.85517 1.61027 9.92892 1.68689 10.0002 1.76619C10.0707 1.68696 10.1441 1.61073 10.2202 1.53769C15.9004 -4.08862 29.167 6.5417 10.0002 20.1613Z" fill="black"/>
</svg>
