<svg width="20" height="21" viewBox="0 0 20 21" fill="none" xmlns="http://www.w3.org/2000/svg">
<path fill-rule="evenodd" clip-rule="evenodd" d="M1.25 10.0806C1.25 12.42 2.17187 14.6635 3.81282 16.3177C5.45376 17.9719 7.67936 18.9012 10 18.9012C12.3206 18.9012 14.5462 17.9719 16.1872 16.3177C17.8281 14.6635 18.75 12.42 18.75 10.0806C18.75 7.74127 17.8281 5.49773 16.1872 3.84356C14.5462 2.18938 12.3206 1.26008 10 1.26008C7.67936 1.26008 5.45376 2.18938 3.81282 3.84356C2.17187 5.49773 1.25 7.74127 1.25 10.0806ZM20 10.0806C20 12.7542 18.9464 15.3182 17.0711 17.2087C15.1957 19.0992 12.6522 20.1613 10 20.1613C7.34784 20.1613 4.8043 19.0992 2.92893 17.2087C1.05357 15.3182 0 12.7542 0 10.0806C0 7.40708 1.05357 4.84303 2.92893 2.95255C4.8043 1.06206 7.34784 0 10 0C12.6522 0 15.1957 1.06206 17.0711 2.95255C18.9464 4.84303 20 7.40708 20 10.0806ZM5.625 9.45059C5.45924 9.45059 5.30027 9.51697 5.18306 9.63513C5.06585 9.75328 5 9.91353 5 10.0806C5 10.2477 5.06585 10.408 5.18306 10.5261C5.30027 10.6443 5.45924 10.7107 5.625 10.7107H12.8663L10.1825 13.4148C10.1244 13.4734 10.0783 13.5429 10.0468 13.6195C10.0154 13.696 9.99921 13.778 9.99921 13.8609C9.99921 13.9437 10.0154 14.0257 10.0468 14.1023C10.0783 14.1788 10.1244 14.2484 10.1825 14.3069C10.2406 14.3655 10.3096 14.412 10.3855 14.4437C10.4614 14.4754 10.5428 14.4917 10.625 14.4917C10.7072 14.4917 10.7886 14.4754 10.8645 14.4437C10.9404 14.412 11.0094 14.3655 11.0675 14.3069L14.8175 10.5267C14.8757 10.4682 14.9219 10.3986 14.9534 10.3221C14.9849 10.2456 15.0011 10.1635 15.0011 10.0806C15.0011 9.99776 14.9849 9.9157 14.9534 9.83916C14.9219 9.76261 14.8757 9.69309 14.8175 9.63456L11.0675 5.85433C11.0094 5.79575 10.9404 5.74928 10.8645 5.71758C10.7886 5.68588 10.7072 5.66956 10.625 5.66956C10.5428 5.66956 10.4614 5.68588 10.3855 5.71758C10.3096 5.74928 10.2406 5.79575 10.1825 5.85433C10.1244 5.9129 10.0783 5.98245 10.0468 6.05898C10.0154 6.13552 9.99921 6.21755 9.99921 6.30039C9.99921 6.38324 10.0154 6.46527 10.0468 6.5418C10.0783 6.61834 10.1244 6.68788 10.1825 6.74646L12.8663 9.45059H5.625Z" fill="black"/>
</svg>
